<svg width="42" height="42" viewBox="0 0 42 42" fill="none" xmlns="http://www.w3.org/2000/svg">
<rect x="0.5" y="0.5" width="41" height="41" rx="20.5" stroke="white" stroke-opacity="0.08"/>
<g clip-path="url(#clip0_12359_131165)">
<path d="M13.5768 25.5957H23.8197V27.1171H13.5768V25.5957Z" fill="white" fill-opacity="0.54"/>
<path d="M29.4148 24.3092C29.4403 24.1629 29.4366 24.013 29.404 23.8681C29.404 23.8681 28.6681 22.3166 28.0311 21.6796C27.0606 20.7091 25.9546 20.3627 24.6677 20.0334L23.071 19.6246C23.0662 19.6264 23.0608 19.6264 23.056 19.6246L20.1445 15.4951C20.0998 15.4302 20.0369 15.3801 19.9637 15.3509L19.1503 15.0454C19.1058 15.0282 19.0573 15.0242 19.0105 15.0338C18.9638 15.0434 18.9208 15.0662 18.8866 15.0995C18.8524 15.1328 18.8284 15.1752 18.8176 15.2216C18.8068 15.2681 18.8095 15.3167 18.8254 15.3617L20.0283 18.8047C20.0295 18.8087 20.0297 18.8129 20.0288 18.817C20.0279 18.8211 20.0259 18.8248 20.0231 18.8279C20.0202 18.8309 20.0166 18.8332 20.0126 18.8344C20.0086 18.8356 20.0044 18.8358 20.0003 18.8348L16.1571 17.8536L16.099 17.8385C15.3825 17.6479 14.7646 17.1937 14.3689 16.5668L13.407 15.0411C13.3594 14.9628 13.2908 14.8995 13.209 14.8582C13.1385 14.8232 13.0601 14.8074 12.9816 14.8124C12.9031 14.8174 12.8272 14.8431 12.7618 14.8867C12.6963 14.9303 12.6435 14.9905 12.6087 15.061C12.5739 15.1316 12.5583 15.21 12.5634 15.2885L12.6775 17.9655C12.6869 18.171 12.7541 18.3696 12.8713 18.5386C12.9885 18.7076 13.1511 18.8401 13.3403 18.9209L14.3129 19.3319L19.925 21.6129L27.8525 24.8407C28.6293 25.1721 29.3007 24.9268 29.4148 24.3092Z" fill="white" fill-opacity="0.54"/>
<path d="M20.9149 22.7277L18.5672 21.7637L16.8845 22.8202C16.8616 22.8349 16.8422 22.8544 16.8278 22.8775C16.8135 22.9006 16.8044 22.9265 16.8013 22.9535C16.7982 22.9805 16.8012 23.0079 16.81 23.0336C16.8188 23.0593 16.8332 23.0827 16.8522 23.1021L17.0136 23.2657C17.1216 23.3766 17.2562 23.458 17.4047 23.5021C17.5531 23.5461 17.7103 23.5514 17.8614 23.5175L20.9149 22.7277Z" fill="white" fill-opacity="0.54"/>
</g>
<defs>
<clipPath id="clip0_12359_131165">
<rect width="16.875" height="12.3044" fill="white" transform="translate(12.5625 14.8125)"/>
</clipPath>
</defs>
</svg>
