<svg width="16" height="16" viewBox="0 0 16 16" fill="none" xmlns="http://www.w3.org/2000/svg">
<g clip-path="url(#clip0_17279_763)">
<path d="M13.9827 11.4258H5.72168V12.6528H13.9827V11.4258Z" fill="#334565" fill-opacity="0.2"/>
<path d="M15.3765 3.70982C15.3078 3.61215 15.2205 3.529 15.1196 3.46512C15.1196 3.46512 13.8163 3 13.0891 3C11.9818 3 11.1523 3.43214 10.2307 3.98056L9.08701 4.65741C9.08309 4.65887 9.07878 4.65887 9.07486 4.65741L5.0641 3.96321C4.99949 3.95113 4.93272 3.95963 4.87319 3.9875L4.23626 4.28428C4.20117 4.30032 4.17143 4.3261 4.15058 4.35856C4.12972 4.39102 4.11864 4.42879 4.11864 4.46737C4.11864 4.50595 4.12972 4.54372 4.15058 4.57618C4.17143 4.60864 4.20117 4.63443 4.23626 4.65047L6.88465 5.93127C6.88753 5.93296 6.88992 5.93536 6.89158 5.93826C6.89324 5.94115 6.89411 5.94443 6.89411 5.94776C6.89411 5.9511 6.89324 5.95437 6.89158 5.95727C6.88992 5.96016 6.88753 5.96257 6.88465 5.96425L4.14254 7.59736L4.10089 7.62166C3.58173 7.92092 2.96876 8.01327 2.38447 7.88025L0.956149 7.55918C0.884414 7.54206 0.809348 7.54507 0.73921 7.56786C0.680296 7.58859 0.627769 7.62425 0.586761 7.67136C0.545754 7.71846 0.517669 7.7754 0.505253 7.83661C0.492836 7.89782 0.496512 7.9612 0.515922 8.02056C0.535331 8.07993 0.56981 8.13324 0.615989 8.17529L2.20919 9.63658C2.33003 9.75075 2.48113 9.8278 2.6445 9.85857C2.80787 9.88933 2.97665 9.87252 3.13074 9.81014L3.92387 9.48907L8.43619 7.59215L14.7916 4.90906C15.4233 4.65047 15.6663 4.13155 15.3765 3.70982Z" fill="#334565" fill-opacity="0.2"/>
<path d="M9.6283 7.65625L7.74007 8.44591L7.38256 10.0079C7.3785 10.0288 7.37907 10.0503 7.38422 10.0709C7.38937 10.0916 7.39898 10.1109 7.41238 10.1274C7.42578 10.144 7.44264 10.1574 7.46177 10.1667C7.48091 10.176 7.50185 10.181 7.52313 10.1814H7.70883C7.83438 10.1815 7.95789 10.1497 8.06779 10.089C8.17768 10.0283 8.27034 9.94065 8.33709 9.83431L9.6283 7.65625Z" fill="#334565" fill-opacity="0.2"/>
</g>
<defs>
<clipPath id="clip0_17279_763">
<rect width="15" height="9.65116" fill="white" transform="translate(0.499512 3)"/>
</clipPath>
</defs>
</svg>
