<svg width="18" height="18" viewBox="0 0 18 18" fill="none" xmlns="http://www.w3.org/2000/svg">
<path d="M16.4959 7.99865L13.7119 6.884L12.5812 4.148C12.4959 3.95067 12.1705 3.95067 12.0852 4.148L10.9492 6.884L8.16521 7.99865C8.06922 8.04133 7.99988 8.13732 7.99988 8.24933C7.99988 8.35601 8.06921 8.452 8.16521 8.49465L10.9492 9.60933L12.0852 12.3453C12.1684 12.5639 12.4998 12.5611 12.5812 12.3453C12.5812 12.3453 13.7119 9.60933 13.7119 9.60933L16.4959 8.49465C16.7198 8.4105 16.7177 8.08107 16.4959 7.99865Z" fill="white"/>
<path d="M10.7391 12.9005L8.8404 12.1378L8.06707 10.2711C7.98172 10.0685 7.65639 10.0685 7.57107 10.2711L6.79773 12.1378L4.89907 12.9005C4.79773 12.9378 4.72839 13.0391 4.72839 13.1458C4.72839 13.2525 4.79773 13.3538 4.89907 13.3912L6.79773 14.1538L7.57107 16.0205C7.61372 16.1218 7.70971 16.1858 7.82172 16.1858C7.92839 16.1858 8.02439 16.1218 8.06707 16.0205L8.8404 14.1538L10.7391 13.3912C10.9611 13.315 10.9627 12.9766 10.7391 12.9005Z" fill="white"/>
<path d="M5.49772 8C5.58832 8 5.66597 7.94725 5.70047 7.86374L6.32601 6.32527L7.86182 5.6967C7.94379 5.66593 7.99988 5.58241 7.99988 5.49452C7.99988 5.4066 7.94379 5.32309 7.86182 5.29231L6.32601 4.66374L5.70047 3.12528C5.63145 2.95824 5.3683 2.95824 5.29926 3.12528L4.67372 4.66374L3.13791 5.29231C3.05594 5.32309 2.99988 5.4066 2.99988 5.49452C2.99988 5.58241 3.05594 5.66593 3.13791 5.6967L4.67372 6.32527L5.29926 7.86374C5.33378 7.94725 5.41143 8 5.49772 8Z" fill="white"/>
</svg>
