<svg width="82" height="28" viewBox="0 0 82 28" fill="none" xmlns="http://www.w3.org/2000/svg">
<circle opacity="0.75" cx="18.0007" cy="13.9988" r="5.34024" stroke="url(#paint0_linear_12359_131094)" stroke-width="1.86391"/>
<circle opacity="0.5" cx="18.0004" cy="13.9994" r="7.20414" stroke="url(#paint1_linear_12359_131094)" stroke-width="1.86391"/>
<circle opacity="0.25" cx="18" cy="14" r="9.06805" stroke="url(#paint2_linear_12359_131094)" stroke-width="1.86391"/>
<path d="M20.2275 12.723C19.9982 12.33 19.6871 12.0025 19.2941 11.7569C18.901 11.5276 18.4589 11.413 18.0004 11.413C17.5418 11.413 17.0997 11.544 16.7067 11.7732C16.3137 12.0025 16.0025 12.3137 15.7732 12.7067C15.5276 13.0997 15.413 13.5255 15.413 14.0004C15.413 14.4589 15.5276 14.901 15.7569 15.2941C15.9861 15.6871 16.3137 15.9982 16.7067 16.2275C17.0833 16.4731 17.5091 16.5878 18.0004 16.5878C18.4589 16.5878 18.8847 16.4731 19.2777 16.2439C19.6707 16.0146 19.9982 15.6871 20.2439 15.2941C20.4731 14.901 20.5878 14.4753 20.5878 14.0004C20.5878 13.5418 20.4568 13.1161 20.2275 12.723ZM20.5878 17.6031C19.8017 18.1599 18.9338 18.4382 18.0004 18.4382C17.198 18.4382 16.461 18.2417 15.7732 17.8487C15.0855 17.4557 14.5614 16.8989 14.1684 16.2111C13.759 15.5561 13.5625 14.8192 13.5625 14.0004C13.5625 13.2143 13.759 12.4774 14.152 11.7896C14.5451 11.1018 15.1018 10.5614 15.7896 10.152C16.461 9.75901 17.198 9.5625 18.0004 9.5625C18.7864 9.5625 19.507 9.75901 20.1947 10.152C20.8825 10.5451 21.4229 11.0527 21.8323 11.7077C22.2254 12.3792 22.4382 13.0997 22.4382 13.8694L22.4219 18.3891H20.5878V17.6031Z" fill="url(#paint3_linear_12359_131094)"/>
<path d="M42.3383 12.0565C42.0515 11.5648 41.6622 11.155 41.1706 10.8477C40.6789 10.5609 40.1257 10.4175 39.5521 10.4175C38.9784 10.4175 38.4253 10.5814 37.9336 10.8682C37.4419 11.155 37.0526 11.5443 36.7658 12.036C36.4585 12.5277 36.3151 13.0604 36.3151 13.6545C36.3151 14.2281 36.4585 14.7813 36.7453 15.273C37.0321 15.7647 37.4419 16.1539 37.9336 16.4408C38.4048 16.7481 38.9374 16.8915 39.5521 16.8915C40.1257 16.8915 40.6584 16.7481 41.1501 16.4613C41.6418 16.1744 42.0515 15.7647 42.3588 15.273C42.6456 14.7813 42.789 14.2486 42.789 13.6545C42.789 13.0808 42.6252 12.5482 42.3383 12.0565ZM42.789 18.1617C41.8057 18.8583 40.7198 19.2065 39.5521 19.2065C38.5482 19.2065 37.6263 18.9607 36.7658 18.469C35.9053 17.9773 35.2497 17.2807 34.758 16.4203C34.2458 15.6008 34 14.6789 34 13.6545C34 12.6711 34.2458 11.7492 34.7375 10.8887C35.2292 10.0282 35.9258 9.35216 36.7863 8.83998C37.6263 8.34828 38.5482 8.10244 39.5521 8.10244C40.5354 8.10244 41.4369 8.34828 42.2974 8.83998C43.1578 9.33167 43.8339 9.96678 44.3461 10.7863C44.8378 11.6263 45.1041 12.5277 45.1041 13.4906L45.0836 19.1451H42.789V18.1617Z" fill="white"/>
<path d="M55.9473 8.14341L55.9883 14.3511C55.9883 15.2935 55.7425 16.1539 55.2713 16.8915C54.8 17.6495 54.1649 18.2232 53.3659 18.6329C52.5464 19.0426 51.7065 19.227 50.846 19.227C49.9446 19.227 49.1046 19.0426 48.3261 18.6329C47.5475 18.2232 46.9124 17.6495 46.4412 16.912C45.9495 16.1744 45.7242 15.314 45.7242 14.3511V8.14341H48.0188V14.3511C48.0188 15.1501 48.2851 15.7852 48.8382 16.2359C49.3709 16.6866 50.047 16.912 50.846 16.912C51.6245 16.912 52.2801 16.6866 52.8333 16.2359C53.3659 15.7852 53.6528 15.1501 53.6528 14.3511V8.14341H55.9473Z" fill="white"/>
<path d="M62.4831 10.5609C62.2373 10.5404 62.0734 10.5199 62.0119 10.5199C61.4382 10.5199 60.8851 10.6838 60.3934 10.9707C59.9017 11.2575 59.5124 11.6467 59.2256 12.1384C58.9183 12.6301 58.7749 13.1628 58.7749 13.7569L58.8159 19.268H56.4189L56.3984 13.3882C56.3984 12.4253 56.6442 11.5238 57.1359 10.7043C57.6276 9.88483 58.3242 9.20875 59.2051 8.71706C60.0451 8.24585 60.967 8 61.9504 8L62.4831 8.04097V10.5609Z" fill="white"/>
<path d="M71.2342 12.0565C70.9474 11.5648 70.5581 11.155 70.0664 10.8477C69.5747 10.5609 69.0216 10.4175 68.4479 10.4175C67.8743 10.4175 67.3211 10.5814 66.8294 10.8682C66.3378 11.155 65.9485 11.5443 65.6617 12.036C65.3544 12.5277 65.211 13.0604 65.211 13.6545C65.211 14.2281 65.3544 14.7813 65.6412 15.273C65.928 15.7647 66.3378 16.1539 66.8294 16.4408C67.3007 16.7481 67.8333 16.8915 68.4479 16.8915C69.0216 16.8915 69.5543 16.7481 70.046 16.4613C70.5376 16.1744 70.9474 15.7647 71.2547 15.273C71.5415 14.7813 71.6849 14.2486 71.6849 13.6545C71.6849 13.0808 71.521 12.5482 71.2342 12.0565ZM71.6849 18.1617C70.7015 18.8583 69.6157 19.2065 68.4479 19.2065C67.4441 19.2065 66.5221 18.9607 65.6617 18.469C64.8012 17.9773 64.1456 17.2807 63.6539 16.4203C63.1417 15.6008 62.8959 14.6789 62.8959 13.6545C62.8959 12.6711 63.1417 11.7492 63.6334 10.8887C64.1251 10.0282 64.8217 9.35216 65.6822 8.83998C66.5221 8.34828 67.4441 8.10244 68.4479 8.10244C69.4313 8.10244 70.3328 8.34828 71.1932 8.83998C72.0537 9.33167 72.7298 9.96678 73.242 10.7863C73.7337 11.6263 74 12.5277 74 13.4906L73.9795 19.1451H71.6849V18.1617Z" fill="white"/>
<defs>
<linearGradient id="paint0_linear_12359_131094" x1="22.0296" y1="19.0898" x2="13.8021" y2="9.26076" gradientUnits="userSpaceOnUse">
<stop stop-color="#2030E5"/>
<stop offset="0.302885" stop-color="#326DEB"/>
<stop offset="1" stop-color="#C860F2"/>
</linearGradient>
<linearGradient id="paint1_linear_12359_131094" x1="23.2266" y1="20.6033" x2="12.5541" y2="7.8534" gradientUnits="userSpaceOnUse">
<stop stop-color="#2030E5"/>
<stop offset="0.302885" stop-color="#326DEB"/>
<stop offset="1" stop-color="#C860F2"/>
</linearGradient>
<linearGradient id="paint2_linear_12359_131094" x1="24.4235" y1="22.1168" x2="11.306" y2="6.44604" gradientUnits="userSpaceOnUse">
<stop stop-color="#2030E5"/>
<stop offset="0.302885" stop-color="#326DEB"/>
<stop offset="1" stop-color="#C860F2"/>
</linearGradient>
<linearGradient id="paint3_linear_12359_131094" x1="20.851" y1="17.6025" x2="15.0297" y2="10.648" gradientUnits="userSpaceOnUse">
<stop stop-color="#2030E5"/>
<stop offset="0.302885" stop-color="#326DEB"/>
<stop offset="1" stop-color="#C860F2"/>
</linearGradient>
</defs>
</svg>
