<svg width="82" height="28" viewBox="0 0 82 28" fill="none" xmlns="http://www.w3.org/2000/svg">
<path d="M25.5 11.5834C25.5029 12.6832 25.2459 13.7683 24.75 14.75C24.162 15.9265 23.2581 16.916 22.1395 17.6078C21.021 18.2995 19.7319 18.6662 18.4167 18.6667C17.3168 18.6696 16.2318 18.4126 15.25 17.9167L10.5 19.5L12.0833 14.75C11.5874 13.7683 11.3305 12.6832 11.3333 11.5834C11.3338 10.2682 11.7005 8.97907 12.3923 7.86048C13.084 6.7419 14.0735 5.838 15.25 5.25002C16.2318 4.75413 17.3168 4.49716 18.4167 4.50002H18.8333C20.5703 4.59585 22.2109 5.32899 23.4409 6.55907C24.671 7.78915 25.4042 9.42973 25.5 11.1667V11.5834Z" stroke="white" stroke-width="1.25" stroke-linecap="round" stroke-linejoin="round"/>
<g clip-path="url(#clip0_12359_131095)">
<rect x="19" y="13" width="12" height="12" rx="6" fill="#E81010"/>
<path d="M25 22.62C24.5467 22.62 24.13 22.5367 23.75 22.37C23.37 22.2033 23.0667 21.95 22.84 21.61C22.6133 21.27 22.4933 20.84 22.48 20.32H23.8C23.8067 20.54 23.8567 20.74 23.95 20.92C24.0433 21.0933 24.18 21.2333 24.36 21.34C24.54 21.44 24.7533 21.49 25 21.49C25.2333 21.49 25.4333 21.4433 25.6 21.35C25.7667 21.2567 25.8933 21.1333 25.98 20.98C26.0667 20.8267 26.11 20.65 26.11 20.45C26.11 20.2167 26.05 20.0233 25.93 19.87C25.8167 19.71 25.6567 19.59 25.45 19.51C25.25 19.43 25.02 19.39 24.76 19.39H24.24V18.28H24.76C25.0867 18.28 25.36 18.2033 25.58 18.05C25.8067 17.8967 25.92 17.6667 25.92 17.36C25.92 17.1067 25.8367 16.9033 25.67 16.75C25.51 16.5967 25.2833 16.52 24.99 16.52C24.67 16.52 24.42 16.6133 24.24 16.8C24.06 16.9867 23.96 17.2167 23.94 17.49H22.62C22.64 17.05 22.75 16.6733 22.95 16.36C23.1567 16.04 23.4333 15.7967 23.78 15.63C24.1267 15.4633 24.53 15.38 24.99 15.38C25.4767 15.38 25.8867 15.4667 26.22 15.64C26.56 15.8067 26.8167 16.0333 26.99 16.32C27.1633 16.6067 27.25 16.9167 27.25 17.25C27.25 17.5233 27.1967 17.7667 27.09 17.98C26.99 18.1933 26.8533 18.37 26.68 18.51C26.5067 18.65 26.3167 18.75 26.11 18.81C26.37 18.8633 26.5967 18.9667 26.79 19.12C26.99 19.2667 27.1433 19.4567 27.25 19.69C27.3633 19.9233 27.42 20.1933 27.42 20.5C27.42 20.88 27.3267 21.2333 27.14 21.56C26.96 21.88 26.6867 22.1367 26.32 22.33C25.96 22.5233 25.52 22.62 25 22.62Z" fill="white"/>
</g>
<path d="M44.064 19.192C42.976 19.192 42.032 18.952 41.232 18.472C40.4427 17.9813 39.8293 17.304 39.392 16.44C38.9653 15.5653 38.752 14.552 38.752 13.4C38.752 12.248 38.9653 11.24 39.392 10.376C39.8293 9.50133 40.4427 8.824 41.232 8.344C42.032 7.85333 42.976 7.608 44.064 7.608C45.3547 7.608 46.3947 7.912 47.184 8.52C47.984 9.128 48.496 9.98667 48.72 11.096H47.248C47.0773 10.4027 46.7307 9.848 46.208 9.432C45.6853 9.00533 44.9707 8.792 44.064 8.792C43.2747 8.792 42.5813 8.97867 41.984 9.352C41.3973 9.71467 40.9387 10.2427 40.608 10.936C40.288 11.6187 40.128 12.44 40.128 13.4C40.128 14.36 40.288 15.1867 40.608 15.88C40.9387 16.5627 41.3973 17.0907 41.984 17.464C42.5813 17.8267 43.2747 18.008 44.064 18.008C44.9707 18.008 45.6853 17.8053 46.208 17.4C46.7307 16.984 47.0773 16.4347 47.248 15.752H48.72C48.496 16.8293 47.984 17.672 47.184 18.28C46.3947 18.888 45.3547 19.192 44.064 19.192ZM50.5884 19V7.48H51.9324V12.328C52.2097 11.8373 52.5884 11.4587 53.0684 11.192C53.5484 10.9147 54.0817 10.776 54.6684 10.776C55.287 10.776 55.8204 10.904 56.2684 11.16C56.727 11.4053 57.079 11.784 57.3244 12.296C57.5804 12.808 57.7084 13.4533 57.7084 14.232V19H56.3804V14.376C56.3804 13.5653 56.2097 12.9573 55.8684 12.552C55.527 12.136 55.031 11.928 54.3804 11.928C53.9217 11.928 53.5057 12.04 53.1324 12.264C52.7697 12.4773 52.4764 12.7973 52.2524 13.224C52.039 13.64 51.9324 14.152 51.9324 14.76V19H50.5884ZM62.4159 19.192C61.7652 19.192 61.2212 19.08 60.7839 18.856C60.3465 18.6213 60.0212 18.3173 59.8079 17.944C59.5945 17.56 59.4879 17.1493 59.4879 16.712C59.4879 16.168 59.6265 15.7093 59.9039 15.336C60.1919 14.952 60.5919 14.664 61.1039 14.472C61.6265 14.2693 62.2345 14.168 62.9279 14.168H65.0719C65.0719 13.6667 64.9919 13.2507 64.8319 12.92C64.6825 12.5893 64.4585 12.3387 64.1599 12.168C63.8612 11.9973 63.4985 11.912 63.0719 11.912C62.5599 11.912 62.1172 12.04 61.7439 12.296C61.3705 12.552 61.1412 12.9307 61.0559 13.432H59.6799C59.7439 12.856 59.9359 12.376 60.2559 11.992C60.5865 11.5973 61.0025 11.2987 61.5039 11.096C62.0052 10.8827 62.5279 10.776 63.0719 10.776C63.8185 10.776 64.4372 10.9147 64.9279 11.192C65.4185 11.4587 65.7865 11.8373 66.0319 12.328C66.2879 12.808 66.4159 13.3733 66.4159 14.024V19H65.2159L65.1359 17.576C65.0292 17.8 64.8905 18.0133 64.7199 18.216C64.5599 18.408 64.3679 18.5787 64.1439 18.728C63.9305 18.8667 63.6799 18.9787 63.3919 19.064C63.1039 19.1493 62.7785 19.192 62.4159 19.192ZM62.6239 18.056C62.9972 18.056 63.3332 17.9813 63.6319 17.832C63.9412 17.672 64.2025 17.4587 64.4159 17.192C64.6292 16.9253 64.7892 16.6267 64.8959 16.296C65.0132 15.9547 65.0719 15.608 65.0719 15.256V15.208H63.0399C62.5279 15.208 62.1119 15.272 61.7919 15.4C61.4719 15.5173 61.2425 15.688 61.1039 15.912C60.9652 16.1253 60.8959 16.3707 60.8959 16.648C60.8959 16.936 60.9599 17.1867 61.0879 17.4C61.2265 17.6027 61.4239 17.7627 61.6799 17.88C61.9359 17.9973 62.2505 18.056 62.6239 18.056ZM71.4283 19C70.9483 19 70.5323 18.9253 70.1803 18.776C69.8283 18.6267 69.5563 18.376 69.3643 18.024C69.1829 17.6613 69.0923 17.176 69.0923 16.568V12.104H67.7003V10.968H69.0923L69.2682 9.032H70.4363V10.968H72.7883V12.104H70.4363V16.568C70.4363 17.0693 70.5376 17.4107 70.7403 17.592C70.9429 17.7627 71.3003 17.848 71.8123 17.848H72.6763V19H71.4283Z" fill="white"/>
<defs>
<clipPath id="clip0_12359_131095">
<rect x="19" y="13" width="12" height="12" rx="6" fill="white"/>
</clipPath>
</defs>
</svg>
