<svg width="42" height="42" viewBox="0 0 42 42" fill="none" xmlns="http://www.w3.org/2000/svg">
<rect x="0.5" y="0.5" width="41" height="41" rx="20.5" stroke="white" stroke-opacity="0.08"/>
<g clip-path="url(#clip0_12359_131174)">
<path d="M27.7327 24.8525H18.4391V26.2329H27.7327V24.8525Z" fill="white" fill-opacity="0.54"/>
<path d="M29.3007 16.1736C29.2235 16.0637 29.1253 15.9701 29.0118 15.8983C29.0118 15.8983 27.5455 15.375 26.7274 15.375C25.4818 15.375 24.5485 15.8612 23.5117 16.4781L22.2251 17.2396C22.2207 17.2412 22.2158 17.2412 22.2114 17.2396L17.6993 16.4586C17.6266 16.445 17.5515 16.4546 17.4845 16.4859L16.768 16.8198C16.7285 16.8379 16.6951 16.8669 16.6716 16.9034C16.6481 16.9399 16.6357 16.9824 16.6357 17.0258C16.6357 17.0692 16.6481 17.1117 16.6716 17.1482C16.6951 17.1847 16.7285 17.2137 16.768 17.2318L19.7474 18.6727C19.7507 18.6746 19.7534 18.6773 19.7552 18.6805C19.7571 18.6838 19.7581 18.6875 19.7581 18.6912C19.7581 18.695 19.7571 18.6987 19.7552 18.7019C19.7534 18.7052 19.7507 18.7079 19.7474 18.7098L16.6626 20.547L16.6157 20.5744C16.0316 20.911 15.3421 21.0149 14.6847 20.8653L13.0779 20.5041C12.9972 20.4848 12.9127 20.4882 12.8338 20.5138C12.7675 20.5372 12.7084 20.5773 12.6623 20.6303C12.6162 20.6833 12.5846 20.7473 12.5706 20.8162C12.5566 20.885 12.5608 20.9564 12.5826 21.0231C12.6044 21.0899 12.6432 21.1499 12.6952 21.1972L14.4875 22.8412C14.6235 22.9696 14.7935 23.0563 14.9773 23.0909C15.1611 23.1255 15.3509 23.1066 15.5243 23.0364L16.4165 22.6752L21.4929 20.5412L28.6428 17.5227C29.3535 17.2318 29.6268 16.648 29.3007 16.1736Z" fill="white" fill-opacity="0.54"/>
<path d="M22.834 20.6133L20.7098 21.5016L20.3076 23.2588C20.303 23.2824 20.3036 23.3066 20.3094 23.3298C20.3152 23.353 20.3261 23.3747 20.3411 23.3933C20.3562 23.4119 20.3752 23.427 20.3967 23.4375C20.4182 23.448 20.4418 23.4537 20.4657 23.4541H20.6746C20.8159 23.4542 20.9548 23.4184 21.0785 23.3501C21.2021 23.2818 21.3063 23.1832 21.3814 23.0636L22.834 20.6133Z" fill="white" fill-opacity="0.54"/>
</g>
<defs>
<clipPath id="clip0_12359_131174">
<rect width="16.875" height="10.8576" fill="white" transform="translate(12.5625 15.375)"/>
</clipPath>
</defs>
</svg>
