<svg width="16" height="16" viewBox="0 0 16 16" fill="none" xmlns="http://www.w3.org/2000/svg">
<g clip-path="url(#clip0_17279_774)">
<path d="M1.39957 12.0859H10.5044V13.4383H1.39957V12.0859Z" fill="#334565" fill-opacity="0.2"/>
<path d="M15.4773 10.9424C15.5 10.8123 15.4967 10.6791 15.4677 10.5503C15.4677 10.5503 14.8136 9.17115 14.2474 8.60496C13.3847 7.7423 12.4016 7.43434 11.2577 7.14169L9.83843 6.77826C9.83412 6.77987 9.82936 6.77987 9.82504 6.77826L7.23706 3.10764C7.19736 3.04997 7.14144 3.00537 7.07638 2.97949L6.35335 2.70787C6.31376 2.69264 6.27064 2.68907 6.22908 2.69759C6.18753 2.70612 6.14929 2.72637 6.11889 2.75596C6.0885 2.78555 6.06722 2.82324 6.05758 2.86455C6.04795 2.90586 6.05036 2.94907 6.06452 2.98905L7.13377 6.04949C7.13487 6.05303 7.13503 6.05681 7.13421 6.06042C7.13339 6.06404 7.13163 6.06738 7.12911 6.0701C7.12658 6.07282 7.12338 6.07482 7.11983 6.07591C7.11628 6.07699 7.11251 6.07712 7.1089 6.07627L3.69268 5.20405L3.64103 5.19066C3.0042 5.02125 2.45489 4.61747 2.10316 4.0602L1.24815 2.70405C1.20582 2.63448 1.14486 2.57816 1.07217 2.54146C1.00953 2.51038 0.939797 2.49635 0.870007 2.50081C0.800217 2.50526 0.732832 2.52803 0.674644 2.56682C0.616457 2.60561 0.569523 2.65905 0.53857 2.72176C0.507618 2.78447 0.493742 2.85423 0.49834 2.92402L0.599716 5.30351C0.608067 5.48616 0.66778 5.66275 0.771995 5.81298C0.87621 5.96321 1.0207 6.08099 1.18885 6.15278L2.05343 6.51812L7.04195 8.54567L14.0886 11.4148C14.7791 11.7094 15.3759 11.4913 15.4773 10.9424Z" fill="#334565" fill-opacity="0.2"/>
<path d="M7.92188 9.53661L5.83503 8.67969L4.33924 9.61886C4.3189 9.63188 4.3017 9.64926 4.28892 9.66975C4.27613 9.69025 4.26807 9.71333 4.26532 9.73733C4.26258 9.76132 4.26521 9.78563 4.27303 9.80848C4.28086 9.83133 4.29367 9.85216 4.31055 9.86944L4.45401 10.0148C4.55003 10.1134 4.66973 10.1857 4.80166 10.2249C4.9336 10.2641 5.07337 10.2688 5.20764 10.2386L7.92188 9.53661Z" fill="#334565" fill-opacity="0.2"/>
</g>
<defs>
<clipPath id="clip0_17279_774">
<rect width="15" height="10.9373" fill="white" transform="translate(0.499512 2.5)"/>
</clipPath>
</defs>
</svg>
