<svg width="16" height="16" viewBox="0 0 16 16" fill="none" xmlns="http://www.w3.org/2000/svg">
<path d="M1.00177 13.2204C0.856983 13.2204 0.737171 13.173 0.642334 13.078C0.547363 12.983 0.499878 12.8631 0.499878 12.7183C0.499878 12.5736 0.547363 12.4537 0.642334 12.3587C0.737171 12.2637 0.856983 12.2163 1.00177 12.2163H14.998C15.1428 12.2163 15.2626 12.2637 15.3574 12.3587C15.4524 12.4537 15.4999 12.5736 15.4999 12.7183C15.4999 12.8631 15.4524 12.983 15.3574 13.078C15.2626 13.173 15.1428 13.2204 14.998 13.2204H1.00177ZM1.10946 11.0688V10.8015C1.10946 8.9848 1.67109 7.47339 2.79435 6.26728C3.91775 5.06117 5.31826 4.3102 6.99589 4.01437V3.54304C6.99589 3.26133 7.0928 3.02357 7.2866 2.82977C7.4804 2.63596 7.71816 2.53906 7.99988 2.53906C8.28159 2.53906 8.51935 2.63596 8.71316 2.82977C8.90696 3.02357 9.00386 3.26133 9.00386 3.54304V4.01437C10.6808 4.3102 12.0811 5.06117 13.2048 6.26728C14.3285 7.47339 14.8903 8.9848 14.8903 10.8015V11.0688H1.10946ZM2.16939 10.0646C2.32789 8.56535 2.96518 7.34026 4.08125 6.38936C5.19745 5.43859 6.50093 4.9632 7.99169 4.9632C9.47911 4.9632 10.7851 5.43859 11.9097 6.38936C13.0344 7.34026 13.6747 8.56535 13.8304 10.0646H2.16939Z" fill="#334565" fill-opacity="0.2"/>
</svg>
