<svg width="54" height="54" viewBox="0 0 54 54" fill="none" xmlns="http://www.w3.org/2000/svg">
<rect width="54" height="54" rx="27" fill="white" fill-opacity="0.07"/>
<path d="M26.2024 1.90794C26.1691 0.86174 25.2928 0.033699 24.2515 0.140247C19.6585 0.610199 15.2513 2.25167 11.4587 4.92133C7.1482 7.95551 3.82015 12.1851 1.88507 17.0884C-0.050006 21.9916 -0.507475 27.3541 0.569097 32.5143C1.64567 37.6745 4.20919 42.4067 7.94344 46.1271C11.6777 49.8476 16.4193 52.3936 21.5835 53.4511C26.7476 54.5086 32.1083 54.0313 37.0044 52.0781C41.9005 50.1249 46.1177 46.7813 49.136 42.4596C51.7916 38.6571 53.4168 34.2438 53.8697 29.6492C53.9724 28.6075 53.1412 27.7342 52.0948 27.7048C51.0485 27.6754 50.1845 28.5015 50.0699 29.5419C49.6452 33.3962 48.2601 37.0936 46.0283 40.2892C43.4338 44.0042 39.8086 46.8784 35.5999 48.5574C31.3912 50.2364 26.783 50.6467 22.3439 49.7376C17.9048 48.8286 13.8288 46.64 10.6188 43.4419C7.40879 40.2437 5.20516 36.1759 4.27973 31.7401C3.3543 27.3044 3.74754 22.6948 5.41096 18.4799C7.07437 14.265 9.93519 10.6292 13.6405 8.02096C16.8278 5.7774 20.5201 4.3786 24.3728 3.93969C25.4128 3.82121 26.2357 2.95414 26.2024 1.90794Z" fill="#87AEDD"/>
<path d="M27 2.15598C27 0.965267 27.9669 -0.00895803 29.1539 0.0859867C35.4228 0.587455 41.3464 3.26606 45.8755 7.69413C50.4045 12.1222 53.216 17.9839 53.8586 24.24C53.9803 25.4245 53.0281 26.4131 51.8377 26.44C50.6473 26.4668 49.6711 25.5211 49.5315 24.3386C48.9259 19.2103 46.5841 14.4174 42.861 10.7773C39.138 7.13727 34.2934 4.90411 29.1528 4.41428C27.9675 4.30133 27 3.3467 27 2.15598Z" fill="#E8E9EA"/>
<path d="M17.9953 32V31.064C18.602 30.596 19.1783 30.1237 19.7243 29.647C20.2703 29.1703 20.76 28.698 21.1933 28.23C21.6266 27.7533 21.9646 27.2897 22.2073 26.839C22.45 26.3797 22.5713 25.942 22.5713 25.526C22.5713 25.2313 22.5193 24.9583 22.4153 24.707C22.3113 24.4557 22.1423 24.252 21.9083 24.096C21.683 23.9313 21.3753 23.849 20.9853 23.849C20.6126 23.849 20.3006 23.9313 20.0493 24.096C19.798 24.2607 19.6073 24.4817 19.4773 24.759C19.356 25.0277 19.2953 25.3267 19.2953 25.656H18.0473C18.056 25.032 18.1903 24.5033 18.4503 24.07C18.7103 23.6367 19.0613 23.3073 19.5033 23.082C19.954 22.8567 20.4566 22.744 21.0113 22.744C21.592 22.744 22.0946 22.8523 22.5193 23.069C22.9526 23.277 23.2863 23.5847 23.5203 23.992C23.7543 24.3907 23.8713 24.8803 23.8713 25.461C23.8713 25.877 23.789 26.293 23.6243 26.709C23.4596 27.1163 23.2343 27.515 22.9483 27.905C22.6623 28.295 22.346 28.672 21.9993 29.036C21.6526 29.3913 21.293 29.7293 20.9203 30.05C20.5563 30.3707 20.2053 30.661 19.8673 30.921H24.1573V32H17.9953ZM28.5653 32.156C27.9327 32.156 27.3867 32.0433 26.9273 31.818C26.468 31.5927 26.104 31.285 25.8353 30.895C25.5753 30.505 25.415 30.0587 25.3543 29.556H26.6283C26.715 29.998 26.9273 30.3577 27.2653 30.635C27.612 30.9123 28.0497 31.051 28.5783 31.051C28.9683 31.051 29.3063 30.96 29.5923 30.778C29.8783 30.5873 30.0993 30.3317 30.2553 30.011C30.4113 29.6903 30.4893 29.3307 30.4893 28.932C30.4893 28.5247 30.407 28.1693 30.2423 27.866C30.0863 27.554 29.8697 27.3113 29.5923 27.138C29.315 26.9647 28.99 26.878 28.6173 26.878C28.1667 26.878 27.781 26.9777 27.4603 27.177C27.1397 27.3763 26.9013 27.6277 26.7453 27.931H25.4973L26.2383 22.9H31.1523V24.031H27.2263L26.7583 26.592C26.9663 26.358 27.2437 26.1673 27.5903 26.02C27.9457 25.8727 28.3487 25.799 28.7993 25.799C29.2587 25.799 29.666 25.8813 30.0213 26.046C30.3853 26.202 30.693 26.423 30.9443 26.709C31.2043 26.995 31.3993 27.3287 31.5293 27.71C31.668 28.0827 31.7373 28.4857 31.7373 28.919C31.7373 29.3697 31.6637 29.79 31.5163 30.18C31.369 30.57 31.1567 30.9167 30.8793 31.22C30.6107 31.5147 30.2813 31.7443 29.8913 31.909C29.5013 32.0737 29.0593 32.156 28.5653 32.156ZM34.315 32L39.541 22.9H40.828L35.602 32H34.315ZM40.334 32.156C39.9353 32.156 39.5713 32.065 39.242 31.883C38.9213 31.701 38.6657 31.4453 38.475 31.116C38.2843 30.778 38.189 30.3837 38.189 29.933C38.189 29.465 38.2843 29.0663 38.475 28.737C38.6657 28.4077 38.9213 28.152 39.242 27.97C39.5713 27.788 39.9353 27.697 40.334 27.697C40.7413 27.697 41.101 27.788 41.413 27.97C41.7337 28.152 41.985 28.4077 42.167 28.737C42.3577 29.0663 42.453 29.465 42.453 29.933C42.453 30.3837 42.3577 30.778 42.167 31.116C41.985 31.4453 41.7337 31.701 41.413 31.883C41.0923 32.065 40.7327 32.156 40.334 32.156ZM40.321 31.194C40.5117 31.194 40.685 31.1463 40.841 31.051C41.0057 30.9557 41.1357 30.817 41.231 30.635C41.335 30.4443 41.387 30.206 41.387 29.92C41.387 29.634 41.3393 29.4 41.244 29.218C41.1487 29.0273 41.0187 28.8843 40.854 28.789C40.698 28.6937 40.5203 28.646 40.321 28.646C40.139 28.646 39.9657 28.6937 39.801 28.789C39.6363 28.8843 39.502 29.0273 39.398 29.218C39.3027 29.4 39.255 29.634 39.255 29.92C39.255 30.206 39.3027 30.4443 39.398 30.635C39.502 30.817 39.632 30.9557 39.788 31.051C39.9527 31.1463 40.1303 31.194 40.321 31.194ZM34.9 27.216C34.5013 27.216 34.1373 27.125 33.808 26.943C33.4873 26.761 33.2317 26.5053 33.041 26.176C32.8503 25.838 32.755 25.4393 32.755 24.98C32.755 24.5207 32.8503 24.1263 33.041 23.797C33.2403 23.4677 33.5003 23.212 33.821 23.03C34.1417 22.848 34.5057 22.757 34.913 22.757C35.3117 22.757 35.6713 22.848 35.992 23.03C36.3127 23.212 36.564 23.4677 36.746 23.797C36.9367 24.1263 37.032 24.5207 37.032 24.98C37.032 25.4393 36.9367 25.838 36.746 26.176C36.564 26.5053 36.3083 26.761 35.979 26.943C35.6583 27.125 35.2987 27.216 34.9 27.216ZM34.9 26.254C35.0907 26.254 35.264 26.2063 35.42 26.111C35.5847 26.0157 35.7147 25.877 35.81 25.695C35.9053 25.5043 35.953 25.266 35.953 24.98C35.953 24.694 35.9053 24.4557 35.81 24.265C35.7147 24.0743 35.5847 23.9313 35.42 23.836C35.264 23.7407 35.095 23.693 34.913 23.693C34.7223 23.693 34.5403 23.7407 34.367 23.836C34.2023 23.9313 34.068 24.0743 33.964 24.265C33.8687 24.4557 33.821 24.694 33.821 24.98C33.821 25.2573 33.8687 25.4913 33.964 25.682C34.068 25.8727 34.2023 26.0157 34.367 26.111C34.5317 26.2063 34.7093 26.254 34.9 26.254Z" fill="white"/>
</svg>
