<svg width="42" height="42" viewBox="0 0 42 42" fill="none" xmlns="http://www.w3.org/2000/svg">
<rect x="0.5" y="0.5" width="41" height="41" rx="20.5" stroke="white" stroke-opacity="0.08"/>
<path d="M12.6023 26C12.4285 26 12.2848 25.9378 12.1709 25.8133C12.057 25.6888 12 25.5317 12 25.3419C12 25.1521 12.057 24.995 12.1709 24.8705C12.2848 24.7461 12.4285 24.6838 12.6023 24.6838H29.3977C29.5715 24.6838 29.7152 24.7461 29.8291 24.8705C29.943 24.995 30 25.1521 30 25.3419C30 25.5317 29.943 25.6888 29.8291 25.8133C29.7152 25.9378 29.5715 26 29.3977 26H12.6023ZM12.7315 23.1799V22.8295C12.7315 20.4484 13.4055 18.4674 14.7534 16.8866C16.1014 15.3057 17.7821 14.3214 19.7952 13.9337V13.3159C19.7952 12.9467 19.9115 12.635 20.1441 12.381C20.3766 12.127 20.6619 12 21 12C21.3381 12 21.6234 12.127 21.8559 12.381C22.0885 12.635 22.2048 12.9467 22.2048 13.3159V13.9337C24.2171 14.3214 25.8975 15.3057 27.2459 16.8866C28.5943 18.4674 29.2685 20.4484 29.2685 22.8295V23.1799H12.7315ZM14.0034 21.8637H27.9966C27.8097 19.8986 27.0415 18.2929 25.6918 17.0466C24.3423 15.8004 22.7751 15.1773 20.9902 15.1773C19.2013 15.1773 17.6371 15.8004 16.2976 17.0466C14.9584 18.2929 14.1936 19.8986 14.0034 21.8637Z" fill="white" fill-opacity="0.54"/>
</svg>
