<svg width="16" height="16" viewBox="0 0 16 16" fill="none" xmlns="http://www.w3.org/2000/svg">
<path d="M2.74032 1.50391L2.46169 1.76706L1.76511 2.46364L1.50195 2.74228L1.70319 3.06735L2.74032 4.80107L2.87964 5.04874H4.33473L6.31612 7.01466C4.54564 8.79288 2.29335 11.0529 2.21402 11.1322C1.4381 11.9082 1.43616 13.1794 2.2295 13.9186C3.00348 14.6829 4.26507 14.7022 5.00035 13.9186C5.00616 13.9128 5.01003 13.9089 5.01583 13.9031L8.06532 10.8381L11.1303 13.9186L11.1767 13.9495C11.9546 14.6829 13.191 14.6926 13.9166 13.9186V13.9031H13.9321C14.6906 13.1272 14.6983 11.8656 13.9166 11.1322L13.9011 11.1168L11.316 8.54714C13.0556 8.38461 14.4178 6.91598 14.4429 5.14162H14.4584C14.4603 5.13195 14.4584 5.12034 14.4584 5.11066C14.4584 5.10486 14.4584 5.10099 14.4584 5.09518C14.5068 4.52244 14.3829 3.97484 14.0869 3.50078L13.7463 2.97447L11.4399 5.28094L10.7433 4.5534L13.0962 2.20049L12.4151 1.92186C12.0165 1.75158 11.556 1.62774 11.0374 1.62774C9.13342 1.62774 7.56997 3.19119 7.56997 5.09518C7.56997 5.30222 7.61448 5.48217 7.64737 5.66793C7.43066 5.88464 7.26812 6.06266 7.01271 6.31807L5.04679 4.35216V2.88159L4.79912 2.74228L3.0654 1.70514L2.74032 1.50391ZM11.0374 2.61844C9.67327 2.61844 8.56067 3.73104 8.56067 5.09518C8.56067 5.27707 8.59743 5.55377 8.63807 5.71437L8.71547 5.993L8.51423 6.19424C6.73407 7.9744 3.09829 11.6411 2.9106 11.8288C2.50039 12.239 2.51006 12.8544 2.89512 13.2065H2.9106V13.222C3.32081 13.6322 3.93613 13.6225 4.28829 13.2375V13.222H4.30377L9.89192 7.61836L10.0777 7.43261L10.3408 7.47905C10.5885 7.52936 10.8091 7.57193 10.991 7.57193C12.3551 7.57193 13.4677 6.45933 13.4677 5.09518V5.04874C13.4813 4.92104 13.4 4.83783 13.3903 4.72367L11.4244 6.68959L11.0839 6.33355L9.69068 4.89395L9.35013 4.53792L11.2232 2.66488C11.1554 2.65907 11.1071 2.61844 11.0374 2.61844ZM2.89512 2.74228L4.05609 3.45434V3.94969L3.94774 4.05805H3.45239L2.74032 2.89707L2.89512 2.74228ZM10.1396 8.76386L13.22 11.8288V11.8443H13.2355C13.6206 12.1965 13.6303 12.8118 13.22 13.222H13.2046V13.2375C12.8524 13.6225 12.2371 13.6322 11.8269 13.222L8.7619 10.1415L10.1396 8.76386Z" fill="#334565" fill-opacity="0.2"/>
</svg>
